# File units = meters
mtllib Icosahedron.mtl
g Part 1
v -0.0404508 -0.025 -1.52023e-16 
v -0.025 3.53099e-16 -0.0404508 
v 1.249e-16 -0.0404508 -0.025 
v 6.93889e-17 -0.0404508 0.025 
v -0.0404508 0.025 -2.25514e-17 
v -0.025 -7.06319e-17 0.0404508 
v 1.249e-16 0.0404508 0.025 
v 7.22327e-17 0.0404508 -0.025 
v 0.025 3.20631e-16 -0.0404508 
v 0.0404508 0.025 -3.40006e-16 
v 0.0404508 -0.025 -3.7817e-16 
v 0.025 -3.81639e-17 0.0404508 
vn -0.57735 -0.57735 -0.57735 
vn -0.356822 -0.934172 6.10623e-16 
vn -0.934172 -9.78755e-16 -0.356822 
vn -0.934172 3.47043e-15 0.356822 
vn -0.57735 -0.57735 0.57735 
vn -0.57735 0.57735 0.57735 
vn -0.356822 0.934172 5.91267e-15 
vn -0.57735 0.57735 -0.57735 
vn 5.4956e-15 -0.356822 -0.934172 
vn 5.13478e-15 0.356822 -0.934172 
vn 0.57735 0.57735 -0.57735 
vn 0.57735 -0.57735 -0.57735 
vn 0.934172 1.88105e-15 -0.356822 
vn 0.356822 0.934172 1.47389e-14 
vn 0.57735 0.57735 0.57735 
vn 5.4956e-15 0.356822 0.934172 
vn 0.356822 -0.934172 -8.21565e-15 
vn 0.934172 6.10623e-16 0.356822 
vn 0.57735 -0.57735 0.57735 
vn 5.13478e-15 -0.356822 0.934172 
usemtl 0.749020_0.019608_0.019608_0.000000_0.000000
o mesh0
f 1//1 2//1 3//1 
o mesh1
f 3//2 4//2 1//2 
o mesh2
f 2//3 1//3 5//3 
o mesh3
f 6//4 5//4 1//4 
o mesh4
f 1//5 4//5 6//5 
o mesh5
f 5//6 6//6 7//6 
o mesh6
f 7//7 8//7 5//7 
o mesh7
f 5//8 8//8 2//8 
o mesh8
f 9//9 3//9 2//9 
o mesh9
f 2//10 8//10 9//10 
o mesh10
f 9//11 8//11 10//11 
o mesh11
f 3//12 9//12 11//12 
o mesh12
f 10//13 11//13 9//13 
o mesh13
f 10//14 8//14 7//14 
o mesh14
f 7//15 12//15 10//15 
o mesh15
f 12//16 7//16 6//16 
o mesh16
f 11//17 4//17 3//17 
o mesh17
f 11//18 10//18 12//18 
o mesh18
f 12//19 4//19 11//19 
o mesh19
f 6//20 4//20 12//20 
