# File units = meters
mtllib rack_base.mtl
g Part 3
v 0.263349 0.506134 0.25 
v 0.263349 0.506134 -0.25 
v 0.238349 0.462833 -0.25 
v 0.238349 0.462833 0.25 
v 0.281651 0.437833 -0.25 
v 0.281651 0.437833 0.25 
v 0.306651 0.481134 -0.25 
v 0.306651 0.481134 0.25 
vn -0.866025 0.5 0 
vn -0.5 -0.866025 0 
vn 0.866025 -0.5 0 
vn 0.5 0.866025 0 
vn 0 0 1 
vn 0 0 -1 
usemtl 0.615686_0.811765_0.929412_0.000000_0.000000
o mesh0
f 1//1 2//1 3//1 
f 3//1 4//1 1//1 
o mesh1
f 4//2 3//2 5//2 
f 5//2 6//2 4//2 
o mesh2
f 6//3 5//3 7//3 
f 7//3 8//3 6//3 
o mesh3
f 8//4 7//4 2//4 
f 2//4 1//4 8//4 
o mesh4
f 8//5 1//5 4//5 
f 4//5 6//5 8//5 
o mesh5
f 7//6 5//6 3//6 
f 3//6 2//6 7//6 
g Part 2
v 0.306651 -0.481134 0.25 
v 0.306651 -0.481134 -0.25 
v 0.281651 -0.437833 -0.25 
v 0.281651 -0.437833 0.25 
v 0.238349 -0.462833 -0.25 
v 0.238349 -0.462833 0.25 
v 0.263349 -0.506134 -0.25 
v 0.263349 -0.506134 0.25 
vn 0.866025 0.5 0 
vn -0.5 0.866025 0 
vn -0.866025 -0.5 0 
vn 0.5 -0.866025 0 
vn 0 0 1 
vn 0 0 -1 
o mesh6
f 9//7 10//7 11//7 
f 11//7 12//7 9//7 
o mesh7
f 12//8 11//8 13//8 
f 13//8 14//8 12//8 
o mesh8
f 14//9 13//9 15//9 
f 15//9 16//9 14//9 
o mesh9
f 16//10 15//10 10//10 
f 10//10 9//10 16//10 
o mesh10
f 9//11 12//11 14//11 
f 14//11 16//11 9//11 
o mesh11
f 10//12 15//12 13//12 
f 13//12 11//12 10//12 
g Part 1
v -0.57 -0.025 0.25 
v -0.57 -0.025 -0.25 
v -0.52 -0.025 -0.25 
v -0.52 -0.025 0.25 
v -0.52 0.025 -0.25 
v -0.52 0.025 0.25 
v -0.57 0.025 -0.25 
v -0.57 0.025 0.25 
vn -1.38778e-16 -1 0 
vn 1 0 0 
vn 6.93889e-17 1 0 
vn -1 0 0 
vn 0 0 1 
vn 0 0 -1 
o mesh12
f 17//13 18//13 19//13 
f 19//13 20//13 17//13 
o mesh13
f 20//14 19//14 21//14 
f 21//14 22//14 20//14 
o mesh14
f 22//15 21//15 23//15 
f 23//15 24//15 22//15 
o mesh15
f 24//16 23//16 18//16 
f 18//16 17//16 24//16 
o mesh16
f 24//17 17//17 20//17 
f 20//17 22//17 24//17 
o mesh17
f 21//18 19//18 18//18 
f 18//18 23//18 21//18 
