# File units = meters
mtllib half_icosahedron.mtl
g Part 1
v -0.0404508 -0.025 -1.52023e-16 
v -1.53761e-16 -0.0404508 3.46945e-18 
v 6.93889e-17 -0.0404508 0.025 
v 0.0404508 -0.025 0 
v 0.025 -3.81639e-17 0.0404508 
v 0.0404508 0.025 3.46945e-18 
v -0.025 -7.06319e-17 0.0404508 
v 1.249e-16 0.0404508 0.025 
v -1.44744e-16 0.0404508 -3.46945e-18 
v -0.0404508 0.025 3.1225e-17 
vn -0.356822 -0.934172 6.10623e-16 
vn 0.356822 -0.934172 -8.21565e-15 
vn 0.57735 -0.57735 0.57735 
vn 0.934172 6.10623e-16 0.356822 
vn 5.13478e-15 -0.356822 0.934172 
vn 0.57735 0.57735 0.57735 
vn 0.356822 0.934172 1.47389e-14 
vn 0 0 -1 
vn -0.57735 -0.57735 0.57735 
vn -0.356822 0.934172 5.91267e-15 
vn -0.57735 0.57735 0.57735 
vn 5.4956e-15 0.356822 0.934172 
vn -0.934172 3.47043e-15 0.356822 
usemtl 0.749020_0.019608_0.019608_0.000000_0.000000
o mesh0
f 1//1 2//1 3//1 
o mesh1
f 2//2 4//2 3//2 
o mesh2
f 5//3 3//3 4//3 
o mesh3
f 4//4 6//4 5//4 
o mesh4
f 7//5 3//5 5//5 
o mesh5
f 8//6 5//6 6//6 
o mesh6
f 6//7 9//7 8//7 
o mesh7
f 9//8 6//8 4//8 
f 2//8 1//8 10//8 
f 10//8 9//8 2//8 
f 4//8 2//8 9//8 
o mesh8
f 1//9 3//9 7//9 
o mesh9
f 9//10 10//10 8//10 
o mesh10
f 10//11 7//11 8//11 
o mesh11
f 5//12 8//12 7//12 
o mesh12
f 7//13 10//13 1//13 
