# WaveFront *.obj file (generated by Autodesk ATF)

mtllib e0ff93ac-f775-4cc3-a737-3662675aed1f.mtl

g Body1

v -60.000000 -183.800000 -39.500000
v -75.000000 -183.800000 -24.500000
v -75.000000 -175.800000 -24.500000
v -60.000000 -175.800000 -39.500000
v -75.000000 -175.800000 24.500000
v -60.000000 -175.800000 39.500000
v -20.000000 -175.800000 39.500000
v -20.000000 -175.800000 37.500000
v 20.000000 -175.800000 37.500000
v 20.000000 -175.800000 39.500000
v 60.000000 -175.800000 39.500000
v 75.000000 -175.800000 24.500000
v 75.000000 -175.800000 -24.500000
v 60.000000 -175.800000 -39.500000
v 20.000000 -175.800000 -39.500000
v 20.000000 -175.800000 -37.500000
v -20.000000 -175.800000 -37.500000
v -20.000000 -175.800000 -39.500000
v -75.000000 -183.800000 24.500000
v -60.000000 -183.800000 39.500000
v 75.000000 -183.800000 -24.500000
v 60.000000 -183.800000 -39.500000
v 75.000000 -183.800000 24.500000
v 60.000000 -183.800000 39.500000
v -75.000000 183.800000 -24.500000
v -60.000000 183.800000 -39.500000
v -60.000000 175.800000 -39.500000
v -75.000000 175.800000 -24.500000
v -75.000000 183.800000 24.500000
v -60.000000 183.800000 39.500000
v 60.000000 183.800000 39.500000
v 75.000000 183.800000 24.500000
v 75.000000 183.800000 -24.500000
v 60.000000 183.800000 -39.500000
v -75.000000 175.800000 24.500000
v -60.000000 175.800000 39.500000
v 75.000000 175.800000 -24.500000
v 60.000000 175.800000 -39.500000
v 75.000000 175.800000 24.500000
v 60.000000 175.800000 39.500000
v -20.000000 175.800000 -39.500000
v -20.000000 175.800000 -37.500000
v 20.000000 175.800000 -37.500000
v 20.000000 175.800000 -39.500000
v 20.000000 175.800000 39.500000
v 20.000000 175.800000 37.500000
v -20.000000 175.800000 37.500000
v -20.000000 175.800000 39.500000
v -20.000000 30.000000 -39.500000
v -20.000000 30.000000 -37.500000
v 20.000000 30.000000 -39.500000
v 20.000000 30.000000 -37.500000
v -75.000000 30.000000 -39.500000
v -75.000000 30.000000 39.500000
v -20.000000 30.000000 39.500000
v -20.000000 30.000000 37.500000
v 20.000000 30.000000 37.500000
v 20.000000 30.000000 39.500000
v 75.000000 30.000000 39.500000
v 75.000000 30.000000 -39.500000
v -20.000000 -30.000000 -39.500000
v -20.000000 -30.000000 -37.500000
v 20.000000 -30.000000 -39.500000
v 20.000000 -30.000000 -37.500000
v 75.000000 -30.000000 -39.500000
v 75.000000 -30.000000 39.500000
v 20.000000 -30.000000 39.500000
v 20.000000 -30.000000 37.500000
v -20.000000 -30.000000 37.500000
v -20.000000 -30.000000 39.500000
v -75.000000 -30.000000 39.500000
v -75.000000 -30.000000 -39.500000
vt -1.060660 -9.590000 0.000000
vt 1.060660 -9.590000 0.000000
vt -1.060660 -8.790000 0.000000
vt 1.060660 -8.790000 0.000000
vt 2.000000 -3.950000 0.000000
vt 6.000000 -3.950000 0.000000
vt 2.000000 -3.750000 0.000000
vt 7.500000 -2.450000 0.000000
vt 2.000000 3.750000 0.000000
vt 7.500000 2.450000 0.000000
vt 6.000000 3.950000 0.000000
vt 2.000000 3.950000 0.000000
vt -2.000000 3.750000 0.000000
vt -2.000000 -3.750000 0.000000
vt -7.500000 2.450000 0.000000
vt -7.500000 -2.450000 0.000000
vt -2.000000 3.950000 0.000000
vt -6.000000 3.950000 0.000000
vt -6.000000 -3.950000 0.000000
vt -2.000000 -3.950000 0.000000
vt -1.500000 0.800000 0.000000
vt -6.400000 0.800000 0.000000
vt -1.500000 0.000000 0.000000
vt -6.400000 0.000000 0.000000
vt -1.060660 -9.590000 0.000000
vt 1.060660 -9.590000 0.000000
vt -1.060660 -8.790000 0.000000
vt 1.060660 -8.790000 0.000000
vt -1.060660 -9.590000 0.000000
vt 1.060660 -9.590000 0.000000
vt -1.060660 -8.790000 0.000000
vt 1.060660 -8.790000 0.000000
vt -6.400000 0.000000 0.000000
vt -1.500000 0.000000 0.000000
vt -6.400000 0.800000 0.000000
vt -1.500000 0.800000 0.000000
vt -1.060660 -9.590000 0.000000
vt 1.060660 -9.590000 0.000000
vt -1.060660 -8.790000 0.000000
vt 1.060660 -8.790000 0.000000
vt 3.950000 -6.000000 0.000000
vt 2.450000 7.500000 0.000000
vt 2.450000 -7.500000 0.000000
vt -2.450000 7.500000 0.000000
vt -2.450000 -7.500000 0.000000
vt -3.950000 -6.000000 0.000000
vt -3.950000 6.000000 0.000000
vt 3.950000 6.000000 0.000000
vt 1.060660 9.590000 0.000000
vt -1.060660 9.590000 0.000000
vt 1.060660 8.790000 0.000000
vt -1.060660 8.790000 0.000000
vt -3.950000 6.000000 0.000000
vt -3.950000 -6.000000 0.000000
vt -2.450000 7.500000 0.000000
vt -2.450000 -7.500000 0.000000
vt 2.450000 -7.500000 0.000000
vt 2.450000 7.500000 0.000000
vt 3.950000 -6.000000 0.000000
vt 3.950000 6.000000 0.000000
vt 1.500000 0.000000 0.000000
vt 6.400000 0.000000 0.000000
vt 1.500000 0.800000 0.000000
vt 6.400000 0.800000 0.000000
vt 1.060660 9.590000 0.000000
vt -1.060660 9.590000 0.000000
vt 1.060660 8.790000 0.000000
vt -1.060660 8.790000 0.000000
vt 1.060660 9.590000 0.000000
vt -1.060660 9.590000 0.000000
vt 1.060660 8.790000 0.000000
vt -1.060660 8.790000 0.000000
vt 6.400000 0.800000 0.000000
vt 1.500000 0.800000 0.000000
vt 6.400000 0.000000 0.000000
vt 1.500000 0.000000 0.000000
vt 1.060660 9.590000 0.000000
vt -1.060660 9.590000 0.000000
vt 1.060660 8.790000 0.000000
vt -1.060660 8.790000 0.000000
vt -7.500000 2.450000 0.000000
vt -7.500000 -2.450000 0.000000
vt -2.000000 -3.750000 0.000000
vt -6.000000 -3.950000 0.000000
vt -2.000000 -3.950000 0.000000
vt -2.000000 3.750000 0.000000
vt 2.000000 -3.750000 0.000000
vt 2.000000 3.750000 0.000000
vt 7.500000 -2.450000 0.000000
vt 7.500000 2.450000 0.000000
vt 2.000000 -3.950000 0.000000
vt 6.000000 -3.950000 0.000000
vt 6.000000 3.950000 0.000000
vt 2.000000 3.950000 0.000000
vt -2.000000 3.950000 0.000000
vt -6.000000 3.950000 0.000000
vt -14.580000 0.000000 0.000000
vt -0.000000 0.000000 0.000000
vt -14.580000 0.200000 0.000000
vt -0.000000 0.200000 0.000000
vt -14.580000 0.000000 0.000000
vt -0.000000 0.000000 0.000000
vt -14.580000 0.200000 0.000000
vt 0.000000 0.200000 0.000000
vt 2.000000 7.290000 0.000000
vt -2.000000 7.290000 0.000000
vt 2.000000 -7.290000 0.000000
vt -2.000000 -7.290000 0.000000
vt -3.950000 2.000000 0.000000
vt -3.750000 2.000000 0.000000
vt -3.950000 7.500000 0.000000
vt 3.750000 2.000000 0.000000
vt 3.950000 7.500000 0.000000
vt 3.950000 2.000000 0.000000
vt 3.750000 -2.000000 0.000000
vt -3.750000 -2.000000 0.000000
vt 3.950000 -7.500000 0.000000
vt -3.950000 -7.500000 0.000000
vt -3.950000 -2.000000 0.000000
vt 3.950000 -2.000000 0.000000
vt -14.580000 0.000000 0.000000
vt -0.000000 0.000000 0.000000
vt -14.580000 0.200000 0.000000
vt -0.000000 0.200000 0.000000
vt -14.580000 0.000000 0.000000
vt -0.000000 0.000000 0.000000
vt -14.580000 0.200000 0.000000
vt -0.000000 0.200000 0.000000
vt 2.000000 7.290000 0.000000
vt -2.000000 7.290000 0.000000
vt 2.000000 -7.290000 0.000000
vt -2.000000 -7.290000 0.000000
vt 3.950000 -2.000000 0.000000
vt 3.750000 -2.000000 0.000000
vt 3.950000 -7.500000 0.000000
vt -3.750000 -2.000000 0.000000
vt -3.950000 -7.500000 0.000000
vt -3.950000 -2.000000 0.000000
vt -3.750000 2.000000 0.000000
vt 3.750000 2.000000 0.000000
vt -3.950000 7.500000 0.000000
vt 3.950000 7.500000 0.000000
vt 3.950000 2.000000 0.000000
vt -3.950000 2.000000 0.000000
vt 0.000000 0.000000 0.000000
vt 14.580000 0.000000 0.000000
vt 0.000000 0.200000 0.000000
vt 14.580000 0.200000 0.000000
vt 0.000000 0.000000 0.000000
vt 14.580000 0.000000 0.000000
vt -0.000000 0.200000 0.000000
vt 14.580000 0.200000 0.000000
vt 2.000000 7.290000 0.000000
vt -2.000000 7.290000 0.000000
vt 2.000000 -7.290000 0.000000
vt -2.000000 -7.290000 0.000000
vt 0.000000 0.000000 0.000000
vt 14.580000 0.000000 0.000000
vt 0.000000 0.200000 0.000000
vt 14.580000 0.200000 0.000000
vt 0.000000 0.000000 0.000000
vt 14.580000 0.000000 0.000000
vt 0.000000 0.200000 0.000000
vt 14.580000 0.200000 0.000000
vt 2.000000 7.290000 0.000000
vt -2.000000 7.290000 0.000000
vt 2.000000 -7.290000 0.000000
vt -2.000000 -7.290000 0.000000
vt 1.500000 -17.580000 0.000000
vt 1.500000 -18.380000 0.000000
vt 5.500000 -17.580000 0.000000
vt 13.500000 -18.380000 0.000000
vt 9.500000 -17.580000 0.000000
vt 13.500000 -17.580000 0.000000
vt 5.500000 -3.000000 0.000000
vt 9.500000 -3.000000 0.000000
vt 5.500000 3.000000 0.000000
vt 9.500000 3.000000 0.000000
vt 5.500000 17.580000 0.000000
vt 9.500000 17.580000 0.000000
vt 1.500000 18.380000 0.000000
vt 13.500000 18.380000 0.000000
vt 13.500000 17.580000 0.000000
vt 15.000000 -3.000000 0.000000
vt 15.000000 3.000000 0.000000
vt 1.500000 17.580000 0.000000
vt 0.000000 3.000000 0.000000
vt 0.000000 -3.000000 0.000000
vt 7.900000 3.000000 0.000000
vt 0.000000 3.000000 0.000000
vt 7.900000 -3.000000 0.000000
vt 0.000000 -3.000000 0.000000
vt 13.500000 -17.580000 0.000000
vt 9.500000 -17.580000 0.000000
vt 13.500000 -18.380000 0.000000
vt 5.500000 -17.580000 0.000000
vt 1.500000 -18.380000 0.000000
vt 1.500000 -17.580000 0.000000
vt 5.500000 -3.000000 0.000000
vt 9.500000 -3.000000 0.000000
vt 5.500000 3.000000 0.000000
vt 9.500000 3.000000 0.000000
vt 5.500000 17.580000 0.000000
vt 9.500000 17.580000 0.000000
vt 1.500000 18.380000 0.000000
vt 13.500000 18.380000 0.000000
vt 13.500000 17.580000 0.000000
vt 15.000000 -3.000000 0.000000
vt 15.000000 3.000000 0.000000
vt 1.500000 17.580000 0.000000
vt 0.000000 3.000000 0.000000
vt 0.000000 -3.000000 0.000000
vt 7.900000 3.000000 0.000000
vt 0.000000 3.000000 0.000000
vt 7.900000 -3.000000 0.000000
vt 0.000000 -3.000000 0.000000
vn -0.070711 0.000000 -0.070711
vn -0.070711 0.000000 -0.070711
vn -0.070711 0.000000 -0.070711
vn -0.070711 0.000000 -0.070711
vn -0.000000 0.100000 -0.000000
vn -0.000000 0.100000 -0.000000
vn -0.000000 0.100000 -0.000000
vn -0.000000 0.100000 -0.000000
vn -0.000000 0.100000 -0.000000
vn -0.000000 0.100000 -0.000000
vn -0.000000 0.100000 -0.000000
vn -0.000000 0.100000 -0.000000
vn -0.000000 0.100000 -0.000000
vn -0.000000 0.100000 -0.000000
vn -0.000000 0.100000 -0.000000
vn -0.000000 0.100000 -0.000000
vn -0.000000 0.100000 -0.000000
vn -0.000000 0.100000 -0.000000
vn -0.000000 0.100000 -0.000000
vn -0.000000 0.100000 -0.000000
vn -0.100000 0.000000 -0.000000
vn -0.100000 0.000000 -0.000000
vn -0.100000 0.000000 -0.000000
vn -0.100000 0.000000 -0.000000
vn -0.070711 0.000000 0.070711
vn -0.070711 0.000000 0.070711
vn -0.070711 0.000000 0.070711
vn -0.070711 0.000000 0.070711
vn 0.070711 0.000000 -0.070711
vn 0.070711 0.000000 -0.070711
vn 0.070711 0.000000 -0.070711
vn 0.070711 0.000000 -0.070711
vn 0.100000 0.000000 -0.000000
vn 0.100000 0.000000 -0.000000
vn 0.100000 0.000000 -0.000000
vn 0.100000 0.000000 -0.000000
vn 0.070711 0.000000 0.070711
vn 0.070711 0.000000 0.070711
vn 0.070711 0.000000 0.070711
vn 0.070711 0.000000 0.070711
vn 0.000000 -0.100000 0.000000
vn 0.000000 -0.100000 0.000000
vn 0.000000 -0.100000 0.000000
vn 0.000000 -0.100000 0.000000
vn 0.000000 -0.100000 0.000000
vn 0.000000 -0.100000 0.000000
vn 0.000000 -0.100000 0.000000
vn 0.000000 -0.100000 0.000000
vn -0.070711 0.000000 -0.070711
vn -0.070711 0.000000 -0.070711
vn -0.070711 0.000000 -0.070711
vn -0.070711 0.000000 -0.070711
vn 0.000000 0.100000 0.000000
vn 0.000000 0.100000 0.000000
vn 0.000000 0.100000 0.000000
vn 0.000000 0.100000 0.000000
vn 0.000000 0.100000 0.000000
vn 0.000000 0.100000 0.000000
vn 0.000000 0.100000 0.000000
vn 0.000000 0.100000 0.000000
vn -0.100000 0.000000 -0.000000
vn -0.100000 0.000000 -0.000000
vn -0.100000 0.000000 -0.000000
vn -0.100000 0.000000 -0.000000
vn -0.070711 0.000000 0.070711
vn -0.070711 0.000000 0.070711
vn -0.070711 0.000000 0.070711
vn -0.070711 0.000000 0.070711
vn 0.070711 0.000000 -0.070711
vn 0.070711 0.000000 -0.070711
vn 0.070711 0.000000 -0.070711
vn 0.070711 0.000000 -0.070711
vn 0.100000 0.000000 -0.000000
vn 0.100000 0.000000 -0.000000
vn 0.100000 0.000000 -0.000000
vn 0.100000 0.000000 -0.000000
vn 0.070711 0.000000 0.070711
vn 0.070711 0.000000 0.070711
vn 0.070711 0.000000 0.070711
vn 0.070711 0.000000 0.070711
vn 0.000000 -0.100000 0.000000
vn 0.000000 -0.100000 0.000000
vn 0.000000 -0.100000 0.000000
vn 0.000000 -0.100000 0.000000
vn 0.000000 -0.100000 0.000000
vn 0.000000 -0.100000 0.000000
vn 0.000000 -0.100000 0.000000
vn 0.000000 -0.100000 0.000000
vn 0.000000 -0.100000 0.000000
vn 0.000000 -0.100000 0.000000
vn 0.000000 -0.100000 0.000000
vn 0.000000 -0.100000 0.000000
vn 0.000000 -0.100000 0.000000
vn 0.000000 -0.100000 0.000000
vn 0.000000 -0.100000 0.000000
vn 0.000000 -0.100000 0.000000
vn -0.100000 -0.000000 0.000000
vn -0.100000 -0.000000 0.000000
vn -0.100000 -0.000000 0.000000
vn -0.100000 -0.000000 0.000000
vn 0.100000 0.000000 0.000000
vn 0.100000 0.000000 0.000000
vn 0.100000 0.000000 0.000000
vn 0.100000 0.000000 0.000000
vn 0.000000 0.000000 0.100000
vn 0.000000 0.000000 0.100000
vn 0.000000 0.000000 0.100000
vn 0.000000 0.000000 0.100000
vn 0.000000 0.100000 0.000000
vn 0.000000 0.100000 0.000000
vn 0.000000 0.100000 0.000000
vn 0.000000 0.100000 0.000000
vn 0.000000 0.100000 0.000000
vn 0.000000 0.100000 0.000000
vn 0.000000 0.100000 0.000000
vn 0.000000 0.100000 0.000000
vn 0.000000 0.100000 0.000000
vn 0.000000 0.100000 0.000000
vn 0.000000 0.100000 0.000000
vn 0.000000 0.100000 0.000000
vn -0.100000 -0.000000 0.000000
vn -0.100000 -0.000000 0.000000
vn -0.100000 -0.000000 0.000000
vn -0.100000 -0.000000 0.000000
vn 0.100000 0.000000 0.000000
vn 0.100000 0.000000 0.000000
vn 0.100000 0.000000 0.000000
vn 0.100000 0.000000 0.000000
vn 0.000000 0.000000 0.100000
vn 0.000000 0.000000 0.100000
vn 0.000000 0.000000 0.100000
vn 0.000000 0.000000 0.100000
vn 0.000000 -0.100000 0.000000
vn 0.000000 -0.100000 0.000000
vn 0.000000 -0.100000 0.000000
vn 0.000000 -0.100000 0.000000
vn 0.000000 -0.100000 0.000000
vn 0.000000 -0.100000 0.000000
vn 0.000000 -0.100000 0.000000
vn 0.000000 -0.100000 0.000000
vn 0.000000 -0.100000 0.000000
vn 0.000000 -0.100000 0.000000
vn 0.000000 -0.100000 0.000000
vn 0.000000 -0.100000 0.000000
vn -0.100000 -0.000000 0.000000
vn -0.100000 -0.000000 0.000000
vn -0.100000 -0.000000 0.000000
vn -0.100000 -0.000000 0.000000
vn 0.100000 0.000000 0.000000
vn 0.100000 0.000000 0.000000
vn 0.100000 0.000000 0.000000
vn 0.100000 0.000000 0.000000
vn 0.000000 0.000000 -0.100000
vn 0.000000 0.000000 -0.100000
vn 0.000000 0.000000 -0.100000
vn 0.000000 0.000000 -0.100000
vn -0.100000 -0.000000 0.000000
vn -0.100000 -0.000000 0.000000
vn -0.100000 -0.000000 0.000000
vn -0.100000 -0.000000 0.000000
vn 0.100000 0.000000 0.000000
vn 0.100000 0.000000 0.000000
vn 0.100000 0.000000 0.000000
vn 0.100000 0.000000 0.000000
vn 0.000000 0.000000 -0.100000
vn 0.000000 0.000000 -0.100000
vn 0.000000 0.000000 -0.100000
vn 0.000000 0.000000 -0.100000
vn 0.000000 0.000000 0.100000
vn 0.000000 0.000000 0.100000
vn 0.000000 0.000000 0.100000
vn 0.000000 0.000000 0.100000
vn 0.000000 0.000000 0.100000
vn 0.000000 0.000000 0.100000
vn 0.000000 0.000000 0.100000
vn 0.000000 0.000000 0.100000
vn 0.000000 0.000000 0.100000
vn 0.000000 0.000000 0.100000
vn 0.000000 0.000000 0.100000
vn 0.000000 0.000000 0.100000
vn 0.000000 0.000000 0.100000
vn 0.000000 0.000000 0.100000
vn 0.000000 0.000000 0.100000
vn 0.000000 0.000000 0.100000
vn 0.000000 0.000000 0.100000
vn 0.000000 0.000000 0.100000
vn 0.000000 0.000000 0.100000
vn 0.000000 0.000000 0.100000
vn -0.100000 0.000000 0.000000
vn -0.100000 0.000000 0.000000
vn -0.100000 0.000000 0.000000
vn -0.100000 0.000000 0.000000
vn 0.000000 0.000000 -0.100000
vn 0.000000 0.000000 -0.100000
vn 0.000000 0.000000 -0.100000
vn 0.000000 0.000000 -0.100000
vn 0.000000 0.000000 -0.100000
vn 0.000000 0.000000 -0.100000
vn 0.000000 0.000000 -0.100000
vn 0.000000 0.000000 -0.100000
vn 0.000000 0.000000 -0.100000
vn 0.000000 0.000000 -0.100000
vn 0.000000 0.000000 -0.100000
vn 0.000000 0.000000 -0.100000
vn 0.000000 0.000000 -0.100000
vn 0.000000 0.000000 -0.100000
vn 0.000000 0.000000 -0.100000
vn 0.000000 0.000000 -0.100000
vn 0.000000 0.000000 -0.100000
vn 0.000000 0.000000 -0.100000
vn 0.000000 0.000000 -0.100000
vn 0.000000 0.000000 -0.100000
vn 0.100000 -0.000000 0.000000
vn 0.100000 -0.000000 0.000000
vn 0.100000 -0.000000 0.000000
vn 0.100000 -0.000000 0.000000
usemtl Steel_-_Satin
f 1/1/1 2/2/2 4/3/3
f 4/3/3 2/2/2 3/4/4
f 18/5/5 4/6/6 17/7/7
f 17/7/7 4/6/6 3/8/8
f 17/7/7 3/8/8 8/9/9
f 8/9/9 3/8/8 5/10/10
f 8/9/9 5/10/10 6/11/11
f 6/11/11 7/12/12 8/9/9
f 8/9/9 9/13/13 17/7/7
f 17/7/7 9/13/13 16/14/14
f 16/14/14 9/13/13 12/15/15
f 16/14/14 12/15/15 13/16/16
f 10/17/17 11/18/18 9/13/13
f 9/13/13 11/18/18 12/15/15
f 13/16/16 14/19/19 16/14/14
f 16/14/14 14/19/19 15/20/20
f 2/21/21 19/22/22 3/23/23
f 3/23/23 19/22/22 5/24/24
f 19/25/25 20/26/26 5/27/27
f 5/27/27 20/26/26 6/28/28
f 21/29/29 22/30/30 13/31/31
f 13/31/31 22/30/30 14/32/32
f 13/33/33 12/34/34 21/35/35
f 21/35/35 12/34/34 23/36/36
f 24/37/37 23/38/38 11/39/39
f 11/39/39 23/38/38 12/40/40
f 1/41/41 21/42/42 2/43/43
f 2/43/43 21/42/42 23/44/44
f 2/43/43 23/44/44 19/45/45
f 19/45/45 23/44/44 20/46/46
f 20/46/46 23/44/44 24/47/47
f 1/41/41 22/48/48 21/42/42
f 25/49/49 26/50/50 28/51/51
f 28/51/51 26/50/50 27/52/52
f 34/53/53 26/54/54 33/55/55
f 33/55/55 26/54/54 25/56/56
f 33/55/55 25/56/56 29/57/57
f 33/55/55 29/57/57 32/58/58
f 32/58/58 29/57/57 30/59/59
f 32/58/58 30/59/59 31/60/60
f 28/61/61 35/62/62 25/63/63
f 25/63/63 35/62/62 29/64/64
f 30/65/65 29/66/66 36/67/67
f 36/67/67 29/66/66 35/68/68
f 34/69/69 33/70/70 38/71/71
f 38/71/71 33/70/70 37/72/72
f 33/73/73 32/74/74 37/75/75
f 37/75/75 32/74/74 39/76/76
f 32/77/77 31/78/78 39/79/79
f 39/79/79 31/78/78 40/80/80
f 35/81/81 28/82/82 42/83/83
f 42/83/83 28/82/82 27/84/84
f 42/83/83 27/84/84 41/85/85
f 35/81/81 42/83/83 47/86/86
f 47/86/86 42/83/83 43/87/87
f 47/86/86 43/87/87 46/88/88
f 46/88/88 43/87/87 37/89/89
f 46/88/88 37/89/89 39/90/90
f 44/91/91 38/92/92 43/87/87
f 43/87/87 38/92/92 37/89/89
f 39/90/90 40/93/93 46/88/88
f 46/88/88 40/93/93 45/94/94
f 48/95/95 36/96/96 47/86/86
f 47/86/86 36/96/96 35/81/81
f 41/97/97 49/98/98 42/99/99
f 42/99/99 49/98/98 50/100/100
f 51/101/101 44/102/102 52/103/103
f 52/103/103 44/102/102 43/104/104
f 43/105/105 42/106/106 52/107/107
f 52/107/107 42/106/106 50/108/108
f 51/109/109 52/110/110 60/111/111
f 60/111/111 52/110/110 57/112/112
f 60/111/111 57/112/112 59/113/113
f 59/113/113 57/112/112 58/114/114
f 57/112/112 52/110/110 56/115/115
f 56/115/115 52/110/110 50/116/116
f 56/115/115 50/116/116 54/117/117
f 54/117/117 50/116/116 53/118/118
f 53/118/118 50/116/116 49/119/119
f 54/117/117 55/120/120 56/115/115
f 61/121/121 18/122/122 62/123/123
f 62/123/123 18/122/122 17/124/124
f 15/125/125 63/126/126 16/127/127
f 16/127/127 63/126/126 64/128/128
f 64/129/129 62/130/130 16/131/131
f 16/131/131 62/130/130 17/132/132
f 61/133/133 62/134/134 72/135/135
f 72/135/135 62/134/134 69/136/136
f 72/135/135 69/136/136 71/137/137
f 71/137/137 69/136/136 70/138/138
f 69/136/136 62/134/134 68/139/139
f 68/139/139 62/134/134 64/140/140
f 68/139/139 64/140/140 66/141/141
f 66/141/141 64/140/140 65/142/142
f 65/142/142 64/140/140 63/143/143
f 66/141/141 67/144/144 68/139/139
f 55/145/145 48/146/146 56/147/147
f 56/147/147 48/146/146 47/148/148
f 45/149/149 58/150/150 46/151/151
f 46/151/151 58/150/150 57/152/152
f 47/153/153 46/154/154 56/155/155
f 56/155/155 46/154/154 57/156/156
f 7/157/157 70/158/158 8/159/159
f 8/159/159 70/158/158 69/160/160
f 67/161/161 10/162/162 68/163/163
f 68/163/163 10/162/162 9/164/164
f 69/165/165 68/166/166 8/167/167
f 8/167/167 68/166/166 9/168/168
f 6/169/169 20/170/170 7/171/171
f 7/171/171 20/170/170 24/172/172
f 7/171/171 24/172/172 10/173/173
f 10/173/173 24/172/172 11/174/174
f 7/171/171 10/173/173 70/175/175
f 70/175/175 10/173/173 67/176/176
f 70/175/175 67/176/176 55/177/177
f 55/177/177 67/176/176 58/178/178
f 55/177/177 58/178/178 48/179/179
f 48/179/179 58/178/178 45/180/180
f 48/179/179 45/180/180 30/181/181
f 30/181/181 45/180/180 31/182/182
f 31/182/182 45/180/180 40/183/183
f 67/176/176 66/184/184 58/178/178
f 58/178/178 66/184/184 59/185/185
f 30/181/181 36/186/186 48/179/179
f 55/177/177 54/187/187 70/175/175
f 70/175/175 54/187/187 71/188/188
f 54/189/189 53/190/190 71/191/191
f 71/191/191 53/190/190 72/192/192
f 4/193/193 18/194/194 1/195/195
f 1/195/195 18/194/194 15/196/196
f 1/195/195 15/196/196 22/197/197
f 22/197/197 15/196/196 14/198/198
f 15/196/196 18/194/194 63/199/199
f 63/199/199 18/194/194 61/200/200
f 63/199/199 61/200/200 51/201/201
f 51/201/201 61/200/200 49/202/202
f 51/201/201 49/202/202 44/203/203
f 44/203/203 49/202/202 41/204/204
f 44/203/203 41/204/204 34/205/205
f 34/205/205 41/204/204 26/206/206
f 26/206/206 41/204/204 27/207/207
f 61/200/200 72/208/208 49/202/202
f 49/202/202 72/208/208 53/209/209
f 34/205/205 38/210/210 44/203/203
f 51/201/201 60/211/211 63/199/199
f 63/199/199 60/211/211 65/212/212
f 60/213/213 59/214/214 65/215/215
f 65/215/215 59/214/214 66/216/216
# 72 vertices
# 216 texture params
# 216 normals
# 148 facets

# 1 groups
